<?xml version="1.0" encoding="utf-8"?>
<!-- Generated by Mocodo 4.3.2 -->
<svg width="454" height="646" viewBox="0 0 454 646" xmlns="http://www.w3.org/2000/svg">
    <rect x="0" y="0" width="454" height="646" fill="#ffffff" stroke="none" stroke-width="0"/>

    <!-- Association CREER -->
    <g>
        <line x1="169" y1="179" x2="53" y2="179" stroke="#878787" stroke-width="2"/>
        <line x1="53" y1="425" x2="53" y2="179" stroke="#878787" stroke-width="2"/>
        <g>
            <path d="M67 154 a14 14 90 0 1 14 14 V179 h-56 V168 a14 14 90 0 1 14 -14" fill="#bababa" stroke="#bababa"
                  stroke-width="0"/>
            <path d="M81 179 v11 a14 14 90 0 1 -14 14 H39 a14 14 90 0 1 -14 -14 V179 H56" fill="#e0e0e0"
                  stroke="#e0e0e0" stroke-width="0"/>
            <rect x="25" y="154" width="56" height="50" fill="none" rx="14" stroke="#878787" stroke-width="2"/>
            <line x1="25" y1="179" x2="81" y2="179" stroke="#878787" stroke-width="1"/>
            <text x="33" y="171.75" fill="#000000" font-family="Verdana" font-size="12">CREER</text>
        </g>
        <text x="87" y="196" fill="#b2182b" font-family="Verdana" font-size="12">1,1</text>
        <text x="58" y="366" fill="#b2182b" font-family="Verdana" font-size="12">1,N</text>
    </g>

    <!-- Association RESERVER -->
    <g>
        <line x1="53" y1="425" x2="169" y2="425" stroke="#878787" stroke-width="2"/>
        <line x1="282" y1="425" x2="169" y2="425" stroke="#878787" stroke-width="2"/>
        <g>
            <path d="M195 400 a14 14 90 0 1 14 14 V425 h-80 V414 a14 14 90 0 1 14 -14" fill="#bababa" stroke="#bababa"
                  stroke-width="0"/>
            <path d="M209 425 v11 a14 14 90 0 1 -14 14 H143 a14 14 90 0 1 -14 -14 V425 H80" fill="#e0e0e0"
                  stroke="#e0e0e0" stroke-width="0"/>
            <rect x="129" y="400" width="80" height="50" fill="none" rx="14" stroke="#878787" stroke-width="2"/>
            <line x1="129" y1="425" x2="209" y2="425" stroke="#878787" stroke-width="1"/>
            <text x="137" y="417.75" fill="#000000" font-family="Verdana" font-size="12">RESERVER</text>
        </g>
        <text x="102" y="442" fill="#b2182b" font-family="Verdana" font-size="12">1,1</text>
        <text x="214" y="442" fill="#b2182b" font-family="Verdana" font-size="12">0,N</text>
    </g>

    <!-- Association EMPRUNTER -->
    <g>
        <line x1="400" y1="569" x2="400" y2="425" stroke="#878787" stroke-width="2"/>
        <line x1="282" y1="425" x2="400" y2="425" stroke="#878787" stroke-width="2"/>
        <g>
            <path d="M431 400 a14 14 90 0 1 14 14 V425 h-90 V414 a14 14 90 0 1 14 -14" fill="#bababa" stroke="#bababa"
                  stroke-width="0"/>
            <path d="M445 425 v11 a14 14 90 0 1 -14 14 H369 a14 14 90 0 1 -14 -14 V425 H90" fill="#e0e0e0"
                  stroke="#e0e0e0" stroke-width="0"/>
            <rect x="355" y="400" width="90" height="50" fill="none" rx="14" stroke="#878787" stroke-width="2"/>
            <line x1="355" y1="425" x2="445" y2="425" stroke="#878787" stroke-width="1"/>
            <text x="363" y="417.75" fill="#000000" font-family="Verdana" font-size="12">EMPRUNTER</text>
        </g>
        <text x="405" y="502" fill="#b2182b" font-family="Verdana" font-size="12">1,1</text>
        <text x="328" y="442" fill="#b2182b" font-family="Verdana" font-size="12">0,N</text>
    </g>

    <!-- Entity PRODUIT -->
    <g>
        <g>
            <rect x="113" y="9" width="112" height="25" fill="#f4a582" stroke="none" stroke-width="0" opacity="1"/>
            <rect x="113" y="34" width="112" height="315" fill="#fddbc7" stroke="none" stroke-width="0" opacity="1"/>
            <rect x="113" y="9" width="112" height="340" fill="none" stroke="#d6604d" stroke-width="2" opacity="1"/>
            <line x1="113" y1="34" x2="225" y2="34" stroke="#d6604d" stroke-width="1"/>
        </g>
        <text x="141" y="26.75" fill="#000000" font-family="Verdana" font-size="12">PRODUIT</text>
        <text x="118" y="51.8" fill="#000000" font-family="Verdana" font-size="12">id</text>
        <line x1="118" y1="54" x2="130" y2="54" stroke="#000000" stroke-width="1"/>
        <text x="118" y="68.8" fill="#000000" font-family="Verdana" font-size="12">type_produit</text>
        <text x="118" y="85.8" fill="#000000" font-family="Verdana" font-size="12">titre</text>
        <text x="118" y="102.8" fill="#000000" font-family="Verdana" font-size="12">description</text>
        <text x="118" y="119.8" fill="#000000" font-family="Verdana" font-size="12">editeur</text>
        <text x="118" y="136.8" fill="#000000" font-family="Verdana" font-size="12">annee_sortie</text>
        <text x="118" y="153.8" fill="#000000" font-family="Verdana" font-size="12">isbn</text>
        <text x="118" y="170.8" fill="#000000" font-family="Verdana" font-size="12">auteur</text>
        <text x="118" y="187.8" fill="#000000" font-family="Verdana" font-size="12">nb_pages</text>
        <text x="118" y="204.8" fill="#000000" font-family="Verdana" font-size="12">format</text>
        <text x="118" y="221.8" fill="#000000" font-family="Verdana" font-size="12">realisateur</text>
        <text x="118" y="238.8" fill="#000000" font-family="Verdana" font-size="12">duree_minutes</text>
        <text x="118" y="255.8" fill="#000000" font-family="Verdana" font-size="12">audio_langues</text>
        <text x="118" y="272.8" fill="#000000" font-family="Verdana" font-size="12">sous_titres</text>
        <text x="118" y="289.8" fill="#000000" font-family="Verdana" font-size="12">nb_joueurs_min</text>
        <text x="118" y="306.8" fill="#000000" font-family="Verdana" font-size="12">nb_joueurs_max</text>
        <text x="118" y="323.8" fill="#000000" font-family="Verdana" font-size="12">age_min</text>
        <text x="118" y="340.8" fill="#000000" font-family="Verdana" font-size="12">duree_partie</text>
    </g>

    <!-- Entity EXEMPLAIRE -->
    <g>
        <g>
            <rect x="9" y="374" width="88" height="25" fill="#f4a582" stroke="none" stroke-width="0" opacity="1"/>
            <rect x="9" y="399" width="88" height="77" fill="#fddbc7" stroke="none" stroke-width="0" opacity="1"/>
            <rect x="9" y="374" width="88" height="102" fill="none" stroke="#d6604d" stroke-width="2" opacity="1"/>
            <line x1="9" y1="399" x2="97" y2="399" stroke="#d6604d" stroke-width="1"/>
        </g>
        <text x="14" y="391.75" fill="#000000" font-family="Verdana" font-size="12">EXEMPLAIRE</text>
        <text x="14" y="416.8" fill="#000000" font-family="Verdana" font-size="12">id</text>
        <line x1="14" y1="419" x2="26" y2="419" stroke="#000000" stroke-width="1"/>
        <text x="14" y="433.8" fill="#000000" font-family="Verdana" font-size="12">code_barre</text>
        <text x="14" y="450.8" fill="#000000" font-family="Verdana" font-size="12">etat</text>
        <text x="14" y="467.8" fill="#000000" font-family="Verdana" font-size="12">statut</text>
    </g>

    <!-- Entity EMPRUNT -->
    <g>
        <g>
            <rect x="241" y="374" width="82" height="25" fill="#f4a582" stroke="none" stroke-width="0" opacity="1"/>
            <rect x="241" y="399" width="82" height="77" fill="#fddbc7" stroke="none" stroke-width="0" opacity="1"/>
            <rect x="241" y="374" width="82" height="102" fill="none" stroke="#d6604d" stroke-width="2" opacity="1"/>
            <line x1="241" y1="399" x2="323" y2="399" stroke="#d6604d" stroke-width="1"/>
        </g>
        <text x="253" y="391.75" fill="#000000" font-family="Verdana" font-size="12">EMPRUNT</text>
        <text x="246" y="416.8" fill="#000000" font-family="Verdana" font-size="12">id</text>
        <line x1="246" y1="419" x2="258" y2="419" stroke="#000000" stroke-width="1"/>
        <text x="246" y="433.8" fill="#000000" font-family="Verdana" font-size="12">date_debut</text>
        <text x="246" y="450.8" fill="#000000" font-family="Verdana" font-size="12">date_retour</text>
        <text x="246" y="467.8" fill="#000000" font-family="Verdana" font-size="12">statut</text>
    </g>

    <!-- Entity ADMINISTRATEUR -->
    <g>
        <g>
            <rect x="108" y="501" width="122" height="25" fill="#f4a582" stroke="none" stroke-width="0" opacity="1"/>
            <rect x="108" y="526" width="122" height="111" fill="#fddbc7" stroke="none" stroke-width="0" opacity="1"/>
            <rect x="108" y="501" width="122" height="136" fill="none" stroke="#d6604d" stroke-width="2" opacity="1"/>
            <line x1="108" y1="526" x2="230" y2="526" stroke="#d6604d" stroke-width="1"/>
        </g>
        <text x="113" y="518.75" fill="#000000" font-family="Verdana" font-size="12">ADMINISTRATEUR</text>
        <text x="113" y="543.8" fill="#000000" font-family="Verdana" font-size="12">id</text>
        <line x1="113" y1="546" x2="125" y2="546" stroke="#000000" stroke-width="1"/>
        <text x="113" y="560.8" fill="#000000" font-family="Verdana" font-size="12">email</text>
        <text x="113" y="577.8" fill="#000000" font-family="Verdana" font-size="12">mdp</text>
        <text x="113" y="594.8" fill="#000000" font-family="Verdana" font-size="12">prenom</text>
        <text x="113" y="611.8" fill="#000000" font-family="Verdana" font-size="12">nom</text>
        <text x="113" y="628.8" fill="#000000" font-family="Verdana" font-size="12">num_tel</text>
    </g>

    <!-- Entity ADHERENT -->
    <g>
        <g>
            <rect x="361" y="510" width="78" height="25" fill="#f4a582" stroke="none" stroke-width="0" opacity="1"/>
            <rect x="361" y="535" width="78" height="93" fill="#fddbc7" stroke="none" stroke-width="0" opacity="1"/>
            <rect x="361" y="510" width="78" height="118" fill="none" stroke="#d6604d" stroke-width="2" opacity="1"/>
            <line x1="361" y1="535" x2="439" y2="535" stroke="#d6604d" stroke-width="1"/>
        </g>
        <text x="367" y="527.75" fill="#000000" font-family="Verdana" font-size="12">ADHERENT</text>
        <text x="366" y="552.8" fill="#000000" font-family="Verdana" font-size="12">id</text>
        <line x1="366" y1="555" x2="378" y2="555" stroke="#000000" stroke-width="1"/>
        <text x="366" y="569.8" fill="#000000" font-family="Verdana" font-size="12">num_tel</text>
        <text x="366" y="586.8" fill="#000000" font-family="Verdana" font-size="12">nom</text>
        <text x="366" y="603.8" fill="#000000" font-family="Verdana" font-size="12">prenom</text>
        <text x="366" y="620.8" fill="#000000" font-family="Verdana" font-size="12">email</text>
    </g>
</svg>